<!--?xml version="1.0" encoding="utf-8"?-->
<!-- Generator: Adobe Illustrator 22.1.0, SVG Export Plug-In . SVG Version: 6.00 Build 0)  -->
<svg version="1.1" id="_x38_" xmlns="http://www.w3.org/2000/svg" xmlns:xlink="http://www.w3.org/1999/xlink" x="0px" y="0px" viewBox="0 0 800 774.067" style="enable-background:new 0 0 800 774.067;" xml:space="preserve">
<style type="text/css">
	.st0{fill:#EEDECA;}
	.st1{fill:#F8EFE6;}
	.st2{fill:#EBCA36;}
</style>
<g>
	<path class="st0" d="M248.887,350.131c-12.335-1.129-60.377-8.96-102.912,34.669c-42.5,43.625-41.09,118.522-72.127,142.585
		c-34.618,26.838-79.654,9.815-70.692,25.45c8.903,15.639,34.663,29.081,60.365,23.487c25.725-5.588,59.287-32.42,74.937-91.684
		c15.64-59.309,76.074-95.081,146.491-52.563L248.887,350.131z"></path>
	<path class="st1" d="M241.933,390.13c-46.976-29.098-124.461-203.282-124.139-294.133c0.253-63.258,13.632-93.487,31.658-94.043
		c18.015-0.58,43.751,13.023,76.062,52.013c32.323,38.908,155.074,239.954,188.612,257.877
		c-13.424,31.313,13.437,89.469,38.038,107.347C414.125,396.831,275.437,356.55,241.933,390.13z"></path>
	<path class="st2" d="M282.734,424.22c-6.723-2.237-55.936-42.494-114.065,6.695c-58.174,49.243-31.336,125.271-105.149,136.451
		C18.783,569.626,9.822,553.97,9.822,553.97s-11.153,0-2.215,8.909c8.962,8.984,33.563,22.381,67.112,13.442
		c33.563-8.956,42.5-33.534,60.378-67.113c18.657-34.968,34.41-137.874,158.814-64.852L282.734,424.22z"></path>
	<path class="st0" d="M414.539,376.321c-2.215-3.35-35.776-83.51-10.418-131.225c19.471-36.677,71.003-59.402,135.132-39.907
		c46.332,14.062,115.521,83.601,171.182,70.532c-42.592,5.703-91.117-4.342-123.394-22.723
		c-32.334-18.343-100.192-19.45-123.657,8.519c-23.487,27.945-43.602,91.706-43.602,91.706L414.539,376.321z"></path>
	<path class="st0" d="M444.382,411.358c0,0-77.232-58.135-175.646-35.776c-69.58,15.799-125.263,84.989-120.8,157.696
		c4.498,72.677,24.658,106.234,44.749,138.659c20.149,32.426,34.698,78.295,31.325,88.363c-3.373,10.069-1.136,13.397,4.474,11.176
		c5.566-2.237,36.913-49.19,0-147.621C191.584,525.422,256.482,376.688,444.382,411.358z"></path>
	<path class="st2" d="M291.122,468.402c2.237,8.938,104.805,126.376,263.607,150.971c129.211,20.045,136.096-13.694,174.981-3.092
		c38.944,10.619,47.515,14.388,60.423,6.718c12.886-7.694,11.681-59.144-16.786-50.326c-28.502,8.824-71.531-1.063-91.897-30.831
		c-61.134-89.492-165.503-86.487-213.626-200.948c-24.05-57.136,27.824-120.163,103.187-86.607
		c73.687,32.793,117.781,34.876,139.422,21.434c-35.547,5.91-60.263,6.971-138.986-35.563
		c-72.334-39.127-156.141,3.459-161.763,73.923c-4.407,55.936,5.622,88.339,5.622,88.339s-184.585-25.731-206.959,121.897
		c-22.777,150.392,62.637,149.863,20.136,241.571c-11.198,22.357,34.664-19.007,26.838-69.333
		C249.414,658.402,203.873,495.239,291.122,468.402z"></path>
</g>
</svg>
